<svg xmlns="http://www.w3.org/2000/svg" version="1.1" width="105mm" height="122mm" viewBox="0 0 105 122">
<path style="fill:none;stroke:#0000FF;stroke-width:0.1;stroke-dasharray:none" d="M 5,77 L 5,55 L 19,5 L 36,5 L 50,55 L 50,77 L 35,77 L 35,109.5 C 35,120 20,120 20,109.5 L 20,77 Z" />
<circle style="fill:none;stroke:#FF0000;stroke-width:0.1;stroke-dasharray:none" cx="27.5" cy="109.5" r="1.25" />
<path style="fill:none;stroke:#FF0000;stroke-width:0.1;stroke-dasharray:none" d="M 7.306217515657871,73.20051920814909 L 7.190745050931846,74.46114052713831 L 7.693782484342129,73.29948079185091 L 7.809254949068154,72.03885947286169 Z" />
<path style="fill:none;stroke:#FF0000;stroke-width:0.1;stroke-dasharray:none" d="M 7.306217515657871,68.7238683127468 L 7.190745050931846,69.98448963173603 L 7.693782484342129,68.82282989644862 L 7.809254949068154,67.5622085774594 Z" />
<path style="fill:none;stroke:#FF0000;stroke-width:0.1;stroke-dasharray:none" d="M 7.306217515657871,64.24721741734452 L 7.190745050931846,65.50783873633374 L 7.693782484342129,64.34617900104634 L 7.809254949068154,63.08555768205712 Z" />
<path style="fill:none;stroke:#FF0000;stroke-width:0.1;stroke-dasharray:none" d="M 7.306217515657871,59.77056652194222 L 7.190745050931846,61.03118784093143 L 7.693782484342129,59.86952810564403 L 7.809254949068154,58.60890678665482 Z" />
<path style="fill:none;stroke:#FF0000;stroke-width:0.1;stroke-dasharray:none" d="M 7.3147535177574055,55.26800583000778 L 7.028808822605874,56.50118693240706 L 7.6852464822425945,55.4187870067739 L 7.971191177394126,54.18560590437462 Z" />
<path style="fill:none;stroke:#FF0000;stroke-width:0.1;stroke-dasharray:none" d="M 8.544567850980897,50.89409896495204 L 8.093470789834072,52.0768971055596 L 8.891095966682634,51.0938945230313 L 9.34219302782946,49.91109638242374 Z" />
<path style="fill:none;stroke:#FF0000;stroke-width:0.1;stroke-dasharray:none" d="M 9.762399759812663,46.54469929055288 L 9.311302698665838,47.72749743116044 L 10.1089278755144,46.74449484863214 L 10.560024936661225,45.56169670802458 Z" />
<path style="fill:none;stroke:#FF0000;stroke-width:0.1;stroke-dasharray:none" d="M 10.980231668644432,42.19529961615371 L 10.529134607497607,43.37809775676127 L 11.32675978434617,42.39509517423297 L 11.777856845492995,41.21229703362541 Z" />
<path style="fill:none;stroke:#FF0000;stroke-width:0.1;stroke-dasharray:none" d="M 12.198063577476198,37.845899941754546 L 11.746966516329373,39.028698082362105 L 12.544591693177935,38.045695499833805 L 12.99568875432476,36.862897359226245 Z" />
<path style="fill:none;stroke:#FF0000;stroke-width:0.1;stroke-dasharray:none" d="M 13.415895486307964,33.49650026735538 L 12.964798425161138,34.67929840796294 L 13.7624236020097,33.69629582543464 L 14.213520663156526,32.51349768482708 Z" />
<path style="fill:none;stroke:#FF0000;stroke-width:0.1;stroke-dasharray:none" d="M 14.633727395139731,29.147100592956207 L 14.182630333992906,30.329898733563763 L 14.980255510841468,29.346896151035466 L 15.431352571988294,28.16409801042791 Z" />
<path style="fill:none;stroke:#FF0000;stroke-width:0.1;stroke-dasharray:none" d="M 15.851559303971499,24.79770091855704 L 15.400462242824673,25.980499059164597 L 16.198087419673236,24.9974964766363 L 16.64918448082006,23.814698336028744 Z" />
<path style="fill:none;stroke:#FF0000;stroke-width:0.1;stroke-dasharray:none" d="M 17.069391212803264,20.448301244157875 L 16.61829415165644,21.63109938476543 L 17.415919328505,20.648096802237134 L 17.867016389651827,19.46529866162958 Z" />
<path style="fill:none;stroke:#FF0000;stroke-width:0.1;stroke-dasharray:none" d="M 18.28722312163503,16.09890156975871 L 17.836126060488205,17.281699710366265 L 18.633751237336767,16.29869712783797 L 19.084848298483593,15.11589898723041 Z" />
<path style="fill:none;stroke:#FF0000;stroke-width:0.1;stroke-dasharray:none" d="M 19.505055030466796,11.749501895359542 L 19.05395796931997,12.932300035967101 L 19.851583146168533,11.949297453438804 L 20.30268020731536,10.766499312831245 Z" />
<path style="fill:none;stroke:#FF0000;stroke-width:0.1;stroke-dasharray:none" d="M 20.818471149648047,7.3157017599320096 L 19.744286996724448,7.985499046883673 L 20.97383084465082,7.684298240068005 L 22.04801499757442,7.014500953116341 Z" />
<path style="fill:none;stroke:#FF0000;stroke-width:0.1;stroke-dasharray:none" d="M 25.348197790900716,7.306217515657871 L 24.087576471911508,7.190745050931846 L 25.24923620719891,7.693782484342129 L 26.509857526188117,7.809254949068154 Z" />
<path style="fill:none;stroke:#FF0000;stroke-width:0.1;stroke-dasharray:none" d="M 29.750763792801095,7.306217515657871 L 28.490142473811886,7.190745050931846 L 29.651802209099287,7.693782484342129 L 30.912423528088496,7.809254949068154 Z" />
<path style="fill:none;stroke:#FF0000;stroke-width:0.1;stroke-dasharray:none" d="M 34.26037676543649,7.375504781056284 L 33.32575388445234,6.5217014838379574 L 33.94732124026464,7.624495218943716 L 34.88194412124879,8.478298516162042 Z" />
<path style="fill:none;stroke:#FF0000;stroke-width:0.1;stroke-dasharray:none" d="M 35.52162797397606,11.844798339798311 L 35.29292257042699,10.599730535063381 L 35.12173384938861,11.85400100900002 L 35.35043925293768,13.09906881373495 Z" />
<path style="fill:none;stroke:#FF0000;stroke-width:0.1;stroke-dasharray:none" d="M 36.73945988280782,16.194198014197475 L 36.51075447925875,14.949130209462547 L 36.339565758220374,16.203400683399188 L 36.568271161769445,17.448468488134118 Z" />
<path style="fill:none;stroke:#FF0000;stroke-width:0.1;stroke-dasharray:none" d="M 37.95729179163959,20.543597688596645 L 37.72858638809052,19.298529883861715 L 37.55739766705214,20.552800357798358 L 37.786103070601214,21.797868162533288 Z" />
<path style="fill:none;stroke:#FF0000;stroke-width:0.1;stroke-dasharray:none" d="M 39.17512370047135,24.89299736299581 L 38.94641829692228,23.64792955826088 L 38.775229575883905,24.902200032197523 L 39.00393497943298,26.147267836932453 Z" />
<path style="fill:none;stroke:#FF0000;stroke-width:0.1;stroke-dasharray:none" d="M 40.39295560930312,29.242397037394976 L 40.16425020575405,27.997329232660046 L 39.993061484715675,29.25159970659669 L 40.221766888264746,30.49666751133162 Z" />
<path style="fill:none;stroke:#FF0000;stroke-width:0.1;stroke-dasharray:none" d="M 41.61078751813489,33.591796711794146 L 41.38208211458582,32.346728907059216 L 41.210893393547444,33.60099938099586 L 41.439598797096515,34.84606718573079 Z" />
<path style="fill:none;stroke:#FF0000;stroke-width:0.1;stroke-dasharray:none" d="M 42.82861942696666,37.94119638619331 L 42.59991402341759,36.69612858145838 L 42.42872530237921,37.950399055395025 L 42.657430705928284,39.195466860129955 Z" />
<path style="fill:none;stroke:#FF0000;stroke-width:0.1;stroke-dasharray:none" d="M 44.04645133579842,42.29059606059248 L 43.81774593224935,41.04552825585755 L 43.646557211210975,42.29979872979419 L 43.87526261476005,43.54486653452912 Z" />
<path style="fill:none;stroke:#FF0000;stroke-width:0.1;stroke-dasharray:none" d="M 45.264283244630185,46.63999573499164 L 45.035577841081114,45.39492793025671 L 44.86438912004274,46.649198404193356 L 45.09309452359181,47.894266208928286 Z" />
<path style="fill:none;stroke:#FF0000;stroke-width:0.1;stroke-dasharray:none" d="M 46.482115153461955,50.98939540939081 L 46.25340974991288,49.74432760465588 L 46.08222102887451,50.99859807859252 L 46.31092643242358,52.24366588332745 Z" />
<path style="fill:none;stroke:#FF0000;stroke-width:0.1;stroke-dasharray:none" d="M 47.69871325590887,55.36604684721889 L 47.641565180175384,54.10143856896038 L 47.30128674409113,55.320745989562774 L 47.358434819824616,56.58535426782128 Z" />
<path style="fill:none;stroke:#FF0000;stroke-width:0.1;stroke-dasharray:none" d="M 47.69378248434213,59.86952810564403 L 47.809254949068155,58.60890678665482 L 47.30621751565787,59.77056652194222 L 47.190745050931845,61.03118784093143 Z" />
<path style="fill:none;stroke:#FF0000;stroke-width:0.1;stroke-dasharray:none" d="M 47.69378248434213,64.34617900104634 L 47.809254949068155,63.08555768205712 L 47.30621751565787,64.24721741734452 L 47.190745050931845,65.50783873633374 Z" />
<path style="fill:none;stroke:#FF0000;stroke-width:0.1;stroke-dasharray:none" d="M 47.69378248434213,68.82282989644862 L 47.809254949068155,67.5622085774594 L 47.30621751565787,68.7238683127468 L 47.190745050931845,69.98448963173603 Z" />
<path style="fill:none;stroke:#FF0000;stroke-width:0.1;stroke-dasharray:none" d="M 47.69378248434213,73.29948079185091 L 47.809254949068155,72.03885947286169 L 47.30621751565787,73.20051920814909 L 47.190745050931845,74.46114052713831 Z" />
<path style="fill:none;stroke:#0000FF;stroke-width:0.1;stroke-dasharray:none" d="M 100,77 L 100,55 L 86,5 L 69,5 L 55,55 L 55,77 Z" />
<circle style="fill:none;stroke:#FF0000;stroke-width:0.1;stroke-dasharray:none" cx="77.5" cy="69.5" r="1.5" />
<path style="fill:none;stroke:#FF0000;stroke-width:0.1;stroke-dasharray:none" d="M 97.69378248434212,73.20051920814909 L 97.80925494906815,74.46114052713831 L 97.30621751565788,73.29948079185091 L 97.19074505093185,72.03885947286169 Z" />
<path style="fill:none;stroke:#FF0000;stroke-width:0.1;stroke-dasharray:none" d="M 97.69378248434212,68.7238683127468 L 97.80925494906815,69.98448963173603 L 97.30621751565788,68.82282989644862 L 97.19074505093185,67.5622085774594 Z" />
<path style="fill:none;stroke:#FF0000;stroke-width:0.1;stroke-dasharray:none" d="M 97.69378248434212,64.24721741734452 L 97.80925494906815,65.50783873633374 L 97.30621751565788,64.34617900104634 L 97.19074505093185,63.08555768205712 Z" />
<path style="fill:none;stroke:#FF0000;stroke-width:0.1;stroke-dasharray:none" d="M 97.69378248434212,59.77056652194222 L 97.80925494906815,61.03118784093143 L 97.30621751565788,59.86952810564403 L 97.19074505093185,58.60890678665482 Z" />
<path style="fill:none;stroke:#FF0000;stroke-width:0.1;stroke-dasharray:none" d="M 97.68524648224259,55.26800583000778 L 97.97119117739413,56.50118693240706 L 97.31475351775741,55.4187870067739 L 97.02880882260587,54.18560590437462 Z" />
<path style="fill:none;stroke:#FF0000;stroke-width:0.1;stroke-dasharray:none" d="M 96.4554321490191,50.89409896495204 L 96.90652921016593,52.0768971055596 L 96.10890403331736,51.0938945230313 L 95.65780697217053,49.91109638242374 Z" />
<path style="fill:none;stroke:#FF0000;stroke-width:0.1;stroke-dasharray:none" d="M 95.23760024018733,46.54469929055288 L 95.68869730133416,47.72749743116044 L 94.89107212448559,46.74449484863214 L 94.43997506333876,45.56169670802458 Z" />
<path style="fill:none;stroke:#FF0000;stroke-width:0.1;stroke-dasharray:none" d="M 94.01976833135558,42.19529961615371 L 94.4708653925024,43.37809775676127 L 93.67324021565383,42.39509517423297 L 93.22214315450701,41.21229703362541 Z" />
<path style="fill:none;stroke:#FF0000;stroke-width:0.1;stroke-dasharray:none" d="M 92.80193642252381,37.845899941754546 L 93.25303348367063,39.028698082362105 L 92.45540830682206,38.045695499833805 L 92.00431124567524,36.862897359226245 Z" />
<path style="fill:none;stroke:#FF0000;stroke-width:0.1;stroke-dasharray:none" d="M 91.58410451369204,33.49650026735538 L 92.03520157483887,34.67929840796294 L 91.2375763979903,33.69629582543464 L 90.78647933684347,32.51349768482708 Z" />
<path style="fill:none;stroke:#FF0000;stroke-width:0.1;stroke-dasharray:none" d="M 90.36627260486027,29.147100592956207 L 90.8173696660071,30.329898733563763 L 90.01974448915853,29.346896151035466 L 89.5686474280117,28.16409801042791 Z" />
<path style="fill:none;stroke:#FF0000;stroke-width:0.1;stroke-dasharray:none" d="M 89.1484406960285,24.79770091855704 L 89.59953775717533,25.980499059164597 L 88.80191258032676,24.9974964766363 L 88.35081551917993,23.814698336028744 Z" />
<path style="fill:none;stroke:#FF0000;stroke-width:0.1;stroke-dasharray:none" d="M 87.93060878719675,20.448301244157875 L 88.38170584834357,21.63109938476543 L 87.584080671495,20.648096802237134 L 87.13298361034818,19.46529866162958 Z" />
<path style="fill:none;stroke:#FF0000;stroke-width:0.1;stroke-dasharray:none" d="M 86.71277687836498,16.09890156975871 L 87.1638739395118,17.281699710366265 L 86.36624876266323,16.29869712783797 L 85.91515170151641,15.11589898723041 Z" />
<path style="fill:none;stroke:#FF0000;stroke-width:0.1;stroke-dasharray:none" d="M 85.49494496953321,11.749501895359542 L 85.94604203068003,12.932300035967101 L 85.14841685383146,11.949297453438804 L 84.69731979268464,10.766499312831245 Z" />
<path style="fill:none;stroke:#FF0000;stroke-width:0.1;stroke-dasharray:none" d="M 84.18152885035195,7.3157017599320096 L 85.25571300327555,7.985499046883673 L 84.02616915534918,7.684298240068005 L 82.95198500242559,7.014500953116341 Z" />
<path style="fill:none;stroke:#FF0000;stroke-width:0.1;stroke-dasharray:none" d="M 79.65180220909927,7.306217515657871 L 80.9124235280885,7.190745050931846 L 79.7507637928011,7.693782484342129 L 78.49014247381187,7.809254949068154 Z" />
<path style="fill:none;stroke:#FF0000;stroke-width:0.1;stroke-dasharray:none" d="M 75.2492362071989,7.306217515657871 L 76.50985752618813,7.190745050931846 L 75.34819779090073,7.693782484342129 L 74.0875764719115,7.809254949068154 Z" />
<path style="fill:none;stroke:#FF0000;stroke-width:0.1;stroke-dasharray:none" d="M 70.73962323456351,7.375504781056284 L 71.67424611554766,6.5217014838379574 L 71.05267875973536,7.624495218943716 L 70.1180558787512,8.478298516162042 Z" />
<path style="fill:none;stroke:#FF0000;stroke-width:0.1;stroke-dasharray:none" d="M 69.47837202602393,11.844798339798311 L 69.707077429573,10.599730535063381 L 69.8782661506114,11.85400100900002 L 69.64956074706232,13.09906881373495 Z" />
<path style="fill:none;stroke:#FF0000;stroke-width:0.1;stroke-dasharray:none" d="M 68.26054011719216,16.194198014197475 L 68.48924552074124,14.949130209462547 L 68.66043424177963,16.203400683399188 L 68.43172883823055,17.448468488134118 Z" />
<path style="fill:none;stroke:#FF0000;stroke-width:0.1;stroke-dasharray:none" d="M 67.0427082083604,20.543597688596645 L 67.27141361190947,19.298529883861715 L 67.44260233294786,20.552800357798358 L 67.21389692939879,21.797868162533288 Z" />
<path style="fill:none;stroke:#FF0000;stroke-width:0.1;stroke-dasharray:none" d="M 65.82487629952864,24.89299736299581 L 66.05358170307771,23.64792955826088 L 66.2247704241161,24.902200032197523 L 65.99606502056703,26.147267836932453 Z" />
<path style="fill:none;stroke:#FF0000;stroke-width:0.1;stroke-dasharray:none" d="M 64.60704439069687,29.242397037394976 L 64.83574979424594,27.997329232660046 L 65.00693851528433,29.25159970659669 L 64.77823311173526,30.49666751133162 Z" />
<path style="fill:none;stroke:#FF0000;stroke-width:0.1;stroke-dasharray:none" d="M 63.38921248186511,33.591796711794146 L 63.61791788541418,32.346728907059216 L 63.789106606452556,33.60099938099586 L 63.560401202903485,34.84606718573079 Z" />
<path style="fill:none;stroke:#FF0000;stroke-width:0.1;stroke-dasharray:none" d="M 62.17138057303334,37.94119638619331 L 62.40008597658241,36.69612858145838 L 62.57127469762079,37.950399055395025 L 62.342569294071716,39.195466860129955 Z" />
<path style="fill:none;stroke:#FF0000;stroke-width:0.1;stroke-dasharray:none" d="M 60.95354866420158,42.29059606059248 L 61.18225406775065,41.04552825585755 L 61.353442788789025,42.29979872979419 L 61.12473738523995,43.54486653452912 Z" />
<path style="fill:none;stroke:#FF0000;stroke-width:0.1;stroke-dasharray:none" d="M 59.735716755369815,46.63999573499164 L 59.964422158918886,45.39492793025671 L 60.13561087995726,46.649198404193356 L 59.90690547640819,47.894266208928286 Z" />
<path style="fill:none;stroke:#FF0000;stroke-width:0.1;stroke-dasharray:none" d="M 58.517884846538045,50.98939540939081 L 58.74659025008712,49.74432760465588 L 58.91777897112549,50.99859807859252 L 58.68907356757642,52.24366588332745 Z" />
<path style="fill:none;stroke:#FF0000;stroke-width:0.1;stroke-dasharray:none" d="M 57.30128674409113,55.36604684721889 L 57.358434819824616,54.10143856896038 L 57.69871325590887,55.320745989562774 L 57.641565180175384,56.58535426782128 Z" />
<path style="fill:none;stroke:#FF0000;stroke-width:0.1;stroke-dasharray:none" d="M 57.30621751565787,59.86952810564403 L 57.190745050931845,58.60890678665482 L 57.69378248434213,59.77056652194222 L 57.809254949068155,61.03118784093143 Z" />
<path style="fill:none;stroke:#FF0000;stroke-width:0.1;stroke-dasharray:none" d="M 57.30621751565787,64.34617900104634 L 57.190745050931845,63.08555768205712 L 57.69378248434213,64.24721741734452 L 57.809254949068155,65.50783873633374 Z" />
<path style="fill:none;stroke:#FF0000;stroke-width:0.1;stroke-dasharray:none" d="M 57.30621751565787,68.82282989644862 L 57.190745050931845,67.5622085774594 L 57.69378248434213,68.7238683127468 L 57.809254949068155,69.98448963173603 Z" />
<path style="fill:none;stroke:#FF0000;stroke-width:0.1;stroke-dasharray:none" d="M 57.30621751565787,73.29948079185091 L 57.190745050931845,72.03885947286169 L 57.69378248434213,73.20051920814909 L 57.809254949068155,74.46114052713831 Z" />
</svg>